<?xml version="1.0" standalone="no"?><!DOCTYPE svg PUBLIC "-//W3C//DTD SVG 1.1//EN" "http://www.w3.org/Graphics/SVG/1.1/DTD/svg11.dtd"><svg t="1671545420335" class="icon" viewBox="0 0 1024 1024" version="1.1" xmlns="http://www.w3.org/2000/svg" p-id="3658" width="200" height="200" xmlns:xlink="http://www.w3.org/1999/xlink"><path d="M554.666667 87.466667v0.298666l2.304 0.341334C555.946667 87.893333 554.666667 87.68 554.666667 87.466667zM586.154667 92.501333l-2.304-0.512c-4.181333-0.64-8.874667-1.28-13.610667-1.877333 5.290667 0.853333 10.666667 1.450667 15.914667 2.389333zM935.082667 480a401.194667 401.194667 0 0 0-1.194667-10.666667h-0.170667c0.426667 3.541333 1.109333 7.04 1.365334 10.666667zM931.285333 450.474667l0 0zM933.717333 469.333333h0.170667a502.613333 502.613333 0 0 0-2.56-18.858666c0.853333 6.272 1.578667 12.586667 2.389333 18.858666zM195.968 169.088h-36.010667a32 32 0 0 0-31.872 31.872v620.501333c0 17.493333 14.336 31.872 31.872 31.872h36.010667a32 32 0 0 0 31.829333-31.872V200.96a32 32 0 0 0-31.829333-31.872z" fill="" p-id="3659"></path><path d="M128.085333 229.674667H227.84v561.578666H128.085333z" fill="" p-id="3660"></path><path d="M440.618667 292.949333H164.650667a36.693333 36.693333 0 0 1-36.565334-36.565333V206.421333a36.693333 36.693333 0 0 1 36.565334-36.608h275.968a36.693333 36.693333 0 0 1 36.565333 36.608v49.962667a36.693333 36.693333 0 0 1-36.565333 36.565333z" fill="" p-id="3661"></path><path d="M128.085333 231.168h349.098667v61.824H128.085333z" fill="" p-id="3662"></path><path d="M788.693333 416.085333H164.693333a36.693333 36.693333 0 0 1-36.565333-36.565333V329.557333a36.693333 36.693333 0 0 1 36.565333-36.608h624.042667a36.693333 36.693333 0 0 1 36.565333 36.565334v50.005333a36.693333 36.693333 0 0 1-36.565333 36.565333z" fill="" p-id="3663"></path><path d="M128.085333 354.304h697.216v61.824H128.085333zM172.757333 416.981333H227.84V853.333333H172.757333zM293.290667 478.805333h548.608V853.333333H293.290667z" fill="" p-id="3664"></path><path d="M861.44 853.333333h-39.04a34.645333 34.645333 0 0 1-34.56-34.56v-305.493333c0-18.944 15.573333-34.474667 34.56-34.474667h38.997333c18.986667 0 34.56 15.530667 34.56 34.517334v305.493333c0 18.986667-15.573333 34.517333-34.56 34.517333z" fill="" p-id="3665"></path></svg>